# xmcd CD database file
# Copyright (C) 1995 Ti Kan
#
# Track frame offsets:
#	150
#	14413
#	27273
#	37295
#	51455
#	68955
#	85888
#	102013
#	117713
#	135135
#	149528
#
# Disc length: 2137 seconds
#
# Revision: 1
# Processed by: cddbd v1.4b41PL1 Copyright (c) Steve Scherf et al.
# Submitted via: NotifyCDPlayer(CDDB) 1.05
#
DISCID=9f08570b
DTITLE=MidWesterners - MidWesterners
DYEAR=1900
DGENRE=
TTITLE0=Carolina
TTITLE1=Can't Slow Down
TTITLE2=Livin' on a Fault Line
TTITLE3=Dangerous Game
TTITLE4=I Write Another Letter
TTITLE5=Everyday Livin' is Tough
TTITLE6=Mad About You
TTITLE7=Anything Goes
TTITLE8=Sawdust Trail
TTITLE9=Full Moon Out Tonight
TTITLE10=Keep It Alive
EXTD=
EXTT0=
EXTT1=
EXTT2=
EXTT3=
EXTT4=
EXTT5=
EXTT6=
EXTT7=
EXTT8=
EXTT9=
EXTT10=
PLAYORDER=
